<svg xmlns="http://www.w3.org/2000/svg" width="32" height="32" viewBox="0 0 32 32"><g transform="translate(-206 -280)"><circle cx="16" cy="16" r="16" transform="translate(206 280)" fill="none"/><g transform="translate(59.383 26.048)"><path d="M15.844,1.786H.893A.893.893,0,0,1,.893,0H15.844a.893.893,0,1,1,0,1.786Z" transform="translate(159.851 261.952) rotate(65)" fill="#222"/><path d="M15.844,1.786H.893A.893.893,0,0,1,.893,0H15.844a.893.893,0,1,1,0,1.786Z" transform="translate(166.924 262.707) rotate(115)" fill="#222"/><path d="M15.844,1.786H.893A.893.893,0,0,1,.893,0H15.844a.893.893,0,1,1,0,1.786Z" transform="translate(155.371 265.568) rotate(25)" fill="#222"/><path d="M15.844,1.786H.893A.893.893,0,0,1,.893,0H15.844a.893.893,0,1,1,0,1.786Z" transform="translate(170.54 267.186) rotate(155)" fill="#222"/></g></g></svg>