<svg xmlns="http://www.w3.org/2000/svg" width="48" height="48" viewBox="0 0 48 48"><g transform="translate(-1622 -978)"><g transform="translate(1622 978)" fill="none" stroke="#333" stroke-width="1"><circle cx="24" cy="24" r="24" stroke="none"/><circle cx="24" cy="24" r="23.5" fill="none"/></g><path d="M1.963,0h8.584c4.849,0,7.236-2.476,7.236-5.771a4.936,4.936,0,0,0-4.541-5.215v-.205A4.451,4.451,0,0,0,16.963-15.7c-.015-3.164-2.285-5.508-6.885-5.508H1.963ZM5.771-3.193v-6.24h4.277c2.373.015,3.853,1.465,3.867,3.369C13.9-4.38,12.744-3.193,9.961-3.193Zm0-8.994v-5.859H9.7c2.271,0,3.442,1.187,3.457,2.813-.015,1.89-1.538,3.047-3.545,3.047Z" transform="translate(1637 1013)"/></g></svg>