<svg xmlns="http://www.w3.org/2000/svg" width="49.215" height="48" viewBox="0 0 49.215 48"><path d="M160.925,107.44a24.61,24.61,0,0,0-7.777,47.958c1.231.225,1.68-.533,1.68-1.186,0-.585-.021-2.131-.033-4.186-6.845,1.488-8.289-3.3-8.289-3.3-1.119-2.843-2.733-3.6-2.733-3.6-2.234-1.527.169-1.5.169-1.5a5.167,5.167,0,0,1,3.769,2.535c2.195,3.761,5.76,2.675,7.162,2.045a5.26,5.26,0,0,1,1.562-3.29c-5.464-.621-11.209-2.731-11.209-12.162a9.513,9.513,0,0,1,2.533-6.6,8.841,8.841,0,0,1,.242-6.512s2.065-.662,6.766,2.523a23.336,23.336,0,0,1,12.321,0c4.7-3.184,6.76-2.523,6.76-2.523a8.843,8.843,0,0,1,.246,6.512,9.5,9.5,0,0,1,2.529,6.6c0,9.453-5.754,11.534-11.236,12.142a5.875,5.875,0,0,1,1.671,4.558c0,3.29-.03,5.944-.03,6.751,0,.657.444,1.423,1.692,1.183a24.611,24.611,0,0,0-7.795-47.955Z" transform="translate(-136.32 -107.44)" fill="#141111" fill-rule="evenodd"/></svg>